<svg width="239" height="169" viewBox="0 0 239 169" fill="none" xmlns="http://www.w3.org/2000/svg">
<path d="M21.3047 152.203V165H19.6084V152.203H21.3047ZM25.7607 157.38V165H24.126V155.49H25.6729L25.7607 157.38ZM25.4268 159.885L24.6709 159.858C24.6768 159.208 24.7617 158.607 24.9258 158.057C25.0898 157.5 25.333 157.017 25.6553 156.606C25.9775 156.196 26.3789 155.88 26.8594 155.657C27.3398 155.429 27.8965 155.314 28.5293 155.314C28.9746 155.314 29.3848 155.379 29.7598 155.508C30.1348 155.631 30.46 155.827 30.7354 156.097C31.0107 156.366 31.2246 156.712 31.377 157.134C31.5293 157.556 31.6055 158.065 31.6055 158.663V165H29.9795V158.742C29.9795 158.244 29.8945 157.846 29.7246 157.547C29.5605 157.248 29.3262 157.031 29.0215 156.896C28.7168 156.756 28.3594 156.686 27.9492 156.686C27.4688 156.686 27.0674 156.771 26.7451 156.94C26.4229 157.11 26.165 157.345 25.9717 157.644C25.7783 157.942 25.6377 158.285 25.5498 158.672C25.4678 159.053 25.4268 159.457 25.4268 159.885ZM31.5879 158.988L30.498 159.322C30.5039 158.801 30.5889 158.3 30.7529 157.819C30.9229 157.339 31.166 156.911 31.4824 156.536C31.8047 156.161 32.2002 155.865 32.6689 155.648C33.1377 155.426 33.6738 155.314 34.2773 155.314C34.7871 155.314 35.2383 155.382 35.6309 155.517C36.0293 155.651 36.3633 155.859 36.6328 156.141C36.9082 156.416 37.1162 156.771 37.2568 157.204C37.3975 157.638 37.4678 158.153 37.4678 158.751V165H35.833V158.733C35.833 158.2 35.748 157.787 35.5781 157.494C35.4141 157.195 35.1797 156.987 34.875 156.87C34.5762 156.747 34.2188 156.686 33.8027 156.686C33.4453 156.686 33.1289 156.747 32.8535 156.87C32.5781 156.993 32.3467 157.163 32.1592 157.38C31.9717 157.591 31.8281 157.834 31.7285 158.109C31.6348 158.385 31.5879 158.678 31.5879 158.988ZM41.5547 157.318V168.656H39.9199V155.49H41.4141L41.5547 157.318ZM47.9619 160.166V160.351C47.9619 161.042 47.8799 161.684 47.7158 162.275C47.5518 162.861 47.3115 163.371 46.9951 163.805C46.6846 164.238 46.3008 164.575 45.8438 164.815C45.3867 165.056 44.8623 165.176 44.2705 165.176C43.667 165.176 43.1338 165.076 42.6709 164.877C42.208 164.678 41.8154 164.388 41.4932 164.007C41.1709 163.626 40.9131 163.169 40.7197 162.636C40.5322 162.103 40.4033 161.502 40.333 160.834V159.85C40.4033 159.146 40.5352 158.517 40.7285 157.96C40.9219 157.403 41.1768 156.929 41.4932 156.536C41.8154 156.138 42.2051 155.836 42.6621 155.631C43.1191 155.42 43.6465 155.314 44.2441 155.314C44.8418 155.314 45.3721 155.432 45.835 155.666C46.2979 155.895 46.6875 156.223 47.0039 156.65C47.3203 157.078 47.5576 157.591 47.7158 158.188C47.8799 158.78 47.9619 159.439 47.9619 160.166ZM46.3271 160.351V160.166C46.3271 159.691 46.2773 159.246 46.1777 158.83C46.0781 158.408 45.9229 158.039 45.7119 157.723C45.5068 157.4 45.2432 157.148 44.9209 156.967C44.5986 156.779 44.2148 156.686 43.7695 156.686C43.3594 156.686 43.002 156.756 42.6973 156.896C42.3984 157.037 42.1436 157.228 41.9326 157.468C41.7217 157.702 41.5488 157.972 41.4141 158.276C41.2852 158.575 41.1885 158.886 41.124 159.208V161.484C41.2412 161.895 41.4053 162.281 41.6162 162.645C41.8271 163.002 42.1084 163.292 42.46 163.515C42.8115 163.731 43.2539 163.84 43.7871 163.84C44.2266 163.84 44.6045 163.749 44.9209 163.567C45.2432 163.38 45.5068 163.125 45.7119 162.803C45.9229 162.48 46.0781 162.111 46.1777 161.695C46.2773 161.273 46.3271 160.825 46.3271 160.351ZM51.6621 156.984V165H50.0361V155.49H51.6182L51.6621 156.984ZM54.6328 155.438L54.624 156.949C54.4893 156.92 54.3604 156.902 54.2373 156.896C54.1201 156.885 53.9854 156.879 53.833 156.879C53.458 156.879 53.127 156.938 52.8398 157.055C52.5527 157.172 52.3096 157.336 52.1104 157.547C51.9111 157.758 51.7529 158.01 51.6357 158.303C51.5244 158.59 51.4512 158.906 51.416 159.252L50.959 159.516C50.959 158.941 51.0146 158.402 51.126 157.898C51.2432 157.395 51.4219 156.949 51.6621 156.562C51.9023 156.17 52.207 155.865 52.5762 155.648C52.9512 155.426 53.3965 155.314 53.9121 155.314C54.0293 155.314 54.1641 155.329 54.3164 155.358C54.4688 155.382 54.5742 155.408 54.6328 155.438ZM55.5293 160.351V160.148C55.5293 159.463 55.6289 158.827 55.8281 158.241C56.0273 157.649 56.3145 157.137 56.6895 156.703C57.0645 156.264 57.5186 155.924 58.0518 155.684C58.585 155.438 59.1826 155.314 59.8447 155.314C60.5127 155.314 61.1133 155.438 61.6465 155.684C62.1855 155.924 62.6426 156.264 63.0176 156.703C63.3984 157.137 63.6885 157.649 63.8877 158.241C64.0869 158.827 64.1865 159.463 64.1865 160.148V160.351C64.1865 161.036 64.0869 161.672 63.8877 162.258C63.6885 162.844 63.3984 163.356 63.0176 163.796C62.6426 164.229 62.1885 164.569 61.6553 164.815C61.1279 165.056 60.5303 165.176 59.8623 165.176C59.1943 165.176 58.5938 165.056 58.0605 164.815C57.5273 164.569 57.0703 164.229 56.6895 163.796C56.3145 163.356 56.0273 162.844 55.8281 162.258C55.6289 161.672 55.5293 161.036 55.5293 160.351ZM57.1553 160.148V160.351C57.1553 160.825 57.2109 161.273 57.3223 161.695C57.4336 162.111 57.6006 162.48 57.8232 162.803C58.0518 163.125 58.3359 163.38 58.6758 163.567C59.0156 163.749 59.4111 163.84 59.8623 163.84C60.3076 163.84 60.6973 163.749 61.0312 163.567C61.3711 163.38 61.6523 163.125 61.875 162.803C62.0977 162.48 62.2646 162.111 62.376 161.695C62.4932 161.273 62.5518 160.825 62.5518 160.351V160.148C62.5518 159.68 62.4932 159.237 62.376 158.821C62.2646 158.399 62.0947 158.027 61.8662 157.705C61.6436 157.377 61.3623 157.119 61.0225 156.932C60.6885 156.744 60.2959 156.65 59.8447 156.65C59.3994 156.65 59.0068 156.744 58.667 156.932C58.333 157.119 58.0518 157.377 57.8232 157.705C57.6006 158.027 57.4336 158.399 57.3223 158.821C57.2109 159.237 57.1553 159.68 57.1553 160.148ZM68.9766 163.532L71.5781 155.49H73.2393L69.8203 165H68.7305L68.9766 163.532ZM66.8057 155.49L69.4863 163.576L69.6709 165H68.5811L65.1357 155.49H66.8057ZM78.627 165.176C77.9648 165.176 77.3643 165.064 76.8252 164.842C76.292 164.613 75.832 164.294 75.4453 163.884C75.0645 163.474 74.7715 162.987 74.5664 162.425C74.3613 161.862 74.2588 161.247 74.2588 160.579V160.21C74.2588 159.437 74.373 158.748 74.6016 158.145C74.8301 157.535 75.1406 157.02 75.5332 156.598C75.9258 156.176 76.3711 155.856 76.8691 155.64C77.3672 155.423 77.8828 155.314 78.416 155.314C79.0957 155.314 79.6816 155.432 80.1738 155.666C80.6719 155.9 81.0791 156.229 81.3955 156.65C81.7119 157.066 81.9463 157.559 82.0986 158.127C82.251 158.689 82.3271 159.305 82.3271 159.973V160.702H75.2256V159.375H80.7012V159.252C80.6777 158.83 80.5898 158.42 80.4375 158.021C80.291 157.623 80.0566 157.295 79.7344 157.037C79.4121 156.779 78.9727 156.65 78.416 156.65C78.0469 156.65 77.707 156.729 77.3965 156.888C77.0859 157.04 76.8193 157.269 76.5967 157.573C76.374 157.878 76.2012 158.25 76.0781 158.689C75.9551 159.129 75.8936 159.636 75.8936 160.21V160.579C75.8936 161.03 75.9551 161.455 76.0781 161.854C76.207 162.246 76.3916 162.592 76.6318 162.891C76.8779 163.189 77.1738 163.424 77.5195 163.594C77.8711 163.764 78.2695 163.849 78.7148 163.849C79.2891 163.849 79.7754 163.731 80.1738 163.497C80.5723 163.263 80.9209 162.949 81.2197 162.557L82.2041 163.339C81.999 163.649 81.7383 163.945 81.4219 164.227C81.1055 164.508 80.7158 164.736 80.2529 164.912C79.7959 165.088 79.2539 165.176 78.627 165.176ZM91.3623 164.016L94.0078 155.49H95.748L91.9336 166.468C91.8457 166.702 91.7285 166.954 91.582 167.224C91.4414 167.499 91.2598 167.76 91.0371 168.006C90.8145 168.252 90.5449 168.451 90.2285 168.604C89.918 168.762 89.5459 168.841 89.1123 168.841C88.9834 168.841 88.8193 168.823 88.6201 168.788C88.4209 168.753 88.2803 168.724 88.1982 168.7L88.1895 167.382C88.2363 167.388 88.3096 167.394 88.4092 167.399C88.5146 167.411 88.5879 167.417 88.6289 167.417C88.998 167.417 89.3115 167.367 89.5693 167.268C89.8271 167.174 90.0439 167.013 90.2197 166.784C90.4014 166.562 90.5566 166.254 90.6855 165.861L91.3623 164.016ZM89.4199 155.49L91.8896 162.873L92.3115 164.587L91.1426 165.185L87.6445 155.49H89.4199ZM96.6445 160.351V160.148C96.6445 159.463 96.7441 158.827 96.9434 158.241C97.1426 157.649 97.4297 157.137 97.8047 156.703C98.1797 156.264 98.6338 155.924 99.167 155.684C99.7002 155.438 100.298 155.314 100.96 155.314C101.628 155.314 102.229 155.438 102.762 155.684C103.301 155.924 103.758 156.264 104.133 156.703C104.514 157.137 104.804 157.649 105.003 158.241C105.202 158.827 105.302 159.463 105.302 160.148V160.351C105.302 161.036 105.202 161.672 105.003 162.258C104.804 162.844 104.514 163.356 104.133 163.796C103.758 164.229 103.304 164.569 102.771 164.815C102.243 165.056 101.646 165.176 100.978 165.176C100.31 165.176 99.709 165.056 99.1758 164.815C98.6426 164.569 98.1855 164.229 97.8047 163.796C97.4297 163.356 97.1426 162.844 96.9434 162.258C96.7441 161.672 96.6445 161.036 96.6445 160.351ZM98.2705 160.148V160.351C98.2705 160.825 98.3262 161.273 98.4375 161.695C98.5488 162.111 98.7158 162.48 98.9385 162.803C99.167 163.125 99.4512 163.38 99.791 163.567C100.131 163.749 100.526 163.84 100.978 163.84C101.423 163.84 101.812 163.749 102.146 163.567C102.486 163.38 102.768 163.125 102.99 162.803C103.213 162.48 103.38 162.111 103.491 161.695C103.608 161.273 103.667 160.825 103.667 160.351V160.148C103.667 159.68 103.608 159.237 103.491 158.821C103.38 158.399 103.21 158.027 102.981 157.705C102.759 157.377 102.478 157.119 102.138 156.932C101.804 156.744 101.411 156.65 100.96 156.65C100.515 156.65 100.122 156.744 99.7822 156.932C99.4482 157.119 99.167 157.377 98.9385 157.705C98.7158 158.027 98.5488 158.399 98.4375 158.821C98.3262 159.237 98.2705 159.68 98.2705 160.148ZM113.159 162.803V155.49H114.794V165H113.238L113.159 162.803ZM113.467 160.799L114.144 160.781C114.144 161.414 114.076 162 113.941 162.539C113.812 163.072 113.602 163.535 113.309 163.928C113.016 164.32 112.632 164.628 112.157 164.851C111.683 165.067 111.105 165.176 110.426 165.176C109.963 165.176 109.538 165.108 109.151 164.974C108.771 164.839 108.442 164.631 108.167 164.35C107.892 164.068 107.678 163.702 107.525 163.251C107.379 162.8 107.306 162.258 107.306 161.625V155.49H108.932V161.643C108.932 162.07 108.979 162.425 109.072 162.706C109.172 162.981 109.304 163.201 109.468 163.365C109.638 163.523 109.825 163.635 110.03 163.699C110.241 163.764 110.458 163.796 110.681 163.796C111.372 163.796 111.92 163.664 112.324 163.4C112.729 163.131 113.019 162.771 113.194 162.319C113.376 161.862 113.467 161.355 113.467 160.799ZM118.898 156.984V165H117.272V155.49H118.854L118.898 156.984ZM121.869 155.438L121.86 156.949C121.726 156.92 121.597 156.902 121.474 156.896C121.356 156.885 121.222 156.879 121.069 156.879C120.694 156.879 120.363 156.938 120.076 157.055C119.789 157.172 119.546 157.336 119.347 157.547C119.147 157.758 118.989 158.01 118.872 158.303C118.761 158.59 118.688 158.906 118.652 159.252L118.195 159.516C118.195 158.941 118.251 158.402 118.362 157.898C118.479 157.395 118.658 156.949 118.898 156.562C119.139 156.17 119.443 155.865 119.812 155.648C120.188 155.426 120.633 155.314 121.148 155.314C121.266 155.314 121.4 155.329 121.553 155.358C121.705 155.382 121.811 155.408 121.869 155.438ZM129.463 157.318V168.656H127.828V155.49H129.322L129.463 157.318ZM135.87 160.166V160.351C135.87 161.042 135.788 161.684 135.624 162.275C135.46 162.861 135.22 163.371 134.903 163.805C134.593 164.238 134.209 164.575 133.752 164.815C133.295 165.056 132.771 165.176 132.179 165.176C131.575 165.176 131.042 165.076 130.579 164.877C130.116 164.678 129.724 164.388 129.401 164.007C129.079 163.626 128.821 163.169 128.628 162.636C128.44 162.103 128.312 161.502 128.241 160.834V159.85C128.312 159.146 128.443 158.517 128.637 157.96C128.83 157.403 129.085 156.929 129.401 156.536C129.724 156.138 130.113 155.836 130.57 155.631C131.027 155.42 131.555 155.314 132.152 155.314C132.75 155.314 133.28 155.432 133.743 155.666C134.206 155.895 134.596 156.223 134.912 156.65C135.229 157.078 135.466 157.591 135.624 158.188C135.788 158.78 135.87 159.439 135.87 160.166ZM134.235 160.351V160.166C134.235 159.691 134.186 159.246 134.086 158.83C133.986 158.408 133.831 158.039 133.62 157.723C133.415 157.4 133.151 157.148 132.829 156.967C132.507 156.779 132.123 156.686 131.678 156.686C131.268 156.686 130.91 156.756 130.605 156.896C130.307 157.037 130.052 157.228 129.841 157.468C129.63 157.702 129.457 157.972 129.322 158.276C129.193 158.575 129.097 158.886 129.032 159.208V161.484C129.149 161.895 129.313 162.281 129.524 162.645C129.735 163.002 130.017 163.292 130.368 163.515C130.72 163.731 131.162 163.84 131.695 163.84C132.135 163.84 132.513 163.749 132.829 163.567C133.151 163.38 133.415 163.125 133.62 162.803C133.831 162.48 133.986 162.111 134.086 161.695C134.186 161.273 134.235 160.825 134.235 160.351ZM139.57 156.984V165H137.944V155.49H139.526L139.57 156.984ZM142.541 155.438L142.532 156.949C142.397 156.92 142.269 156.902 142.146 156.896C142.028 156.885 141.894 156.879 141.741 156.879C141.366 156.879 141.035 156.938 140.748 157.055C140.461 157.172 140.218 157.336 140.019 157.547C139.819 157.758 139.661 158.01 139.544 158.303C139.433 158.59 139.359 158.906 139.324 159.252L138.867 159.516C138.867 158.941 138.923 158.402 139.034 157.898C139.151 157.395 139.33 156.949 139.57 156.562C139.811 156.17 140.115 155.865 140.484 155.648C140.859 155.426 141.305 155.314 141.82 155.314C141.938 155.314 142.072 155.329 142.225 155.358C142.377 155.382 142.482 155.408 142.541 155.438ZM143.438 160.351V160.148C143.438 159.463 143.537 158.827 143.736 158.241C143.936 157.649 144.223 157.137 144.598 156.703C144.973 156.264 145.427 155.924 145.96 155.684C146.493 155.438 147.091 155.314 147.753 155.314C148.421 155.314 149.021 155.438 149.555 155.684C150.094 155.924 150.551 156.264 150.926 156.703C151.307 157.137 151.597 157.649 151.796 158.241C151.995 158.827 152.095 159.463 152.095 160.148V160.351C152.095 161.036 151.995 161.672 151.796 162.258C151.597 162.844 151.307 163.356 150.926 163.796C150.551 164.229 150.097 164.569 149.563 164.815C149.036 165.056 148.438 165.176 147.771 165.176C147.103 165.176 146.502 165.056 145.969 164.815C145.436 164.569 144.979 164.229 144.598 163.796C144.223 163.356 143.936 162.844 143.736 162.258C143.537 161.672 143.438 161.036 143.438 160.351ZM145.063 160.148V160.351C145.063 160.825 145.119 161.273 145.23 161.695C145.342 162.111 145.509 162.48 145.731 162.803C145.96 163.125 146.244 163.38 146.584 163.567C146.924 163.749 147.319 163.84 147.771 163.84C148.216 163.84 148.605 163.749 148.939 163.567C149.279 163.38 149.561 163.125 149.783 162.803C150.006 162.48 150.173 162.111 150.284 161.695C150.401 161.273 150.46 160.825 150.46 160.351V160.148C150.46 159.68 150.401 159.237 150.284 158.821C150.173 158.399 150.003 158.027 149.774 157.705C149.552 157.377 149.271 157.119 148.931 156.932C148.597 156.744 148.204 156.65 147.753 156.65C147.308 156.65 146.915 156.744 146.575 156.932C146.241 157.119 145.96 157.377 145.731 157.705C145.509 158.027 145.342 158.399 145.23 158.821C145.119 159.237 145.063 159.68 145.063 160.148ZM160.128 163.154V151.5H161.763V165H160.269L160.128 163.154ZM153.729 160.351V160.166C153.729 159.439 153.817 158.78 153.993 158.188C154.175 157.591 154.43 157.078 154.758 156.65C155.092 156.223 155.487 155.895 155.944 155.666C156.407 155.432 156.923 155.314 157.491 155.314C158.089 155.314 158.61 155.42 159.056 155.631C159.507 155.836 159.888 156.138 160.198 156.536C160.515 156.929 160.764 157.403 160.945 157.96C161.127 158.517 161.253 159.146 161.323 159.85V160.658C161.259 161.355 161.133 161.982 160.945 162.539C160.764 163.096 160.515 163.57 160.198 163.963C159.888 164.355 159.507 164.657 159.056 164.868C158.604 165.073 158.077 165.176 157.474 165.176C156.917 165.176 156.407 165.056 155.944 164.815C155.487 164.575 155.092 164.238 154.758 163.805C154.43 163.371 154.175 162.861 153.993 162.275C153.817 161.684 153.729 161.042 153.729 160.351ZM155.364 160.166V160.351C155.364 160.825 155.411 161.271 155.505 161.687C155.604 162.103 155.757 162.469 155.962 162.785C156.167 163.102 156.428 163.351 156.744 163.532C157.061 163.708 157.438 163.796 157.878 163.796C158.417 163.796 158.859 163.682 159.205 163.453C159.557 163.225 159.838 162.923 160.049 162.548C160.26 162.173 160.424 161.766 160.541 161.326V159.208C160.471 158.886 160.368 158.575 160.233 158.276C160.104 157.972 159.935 157.702 159.724 157.468C159.519 157.228 159.264 157.037 158.959 156.896C158.66 156.756 158.306 156.686 157.896 156.686C157.45 156.686 157.066 156.779 156.744 156.967C156.428 157.148 156.167 157.4 155.962 157.723C155.757 158.039 155.604 158.408 155.505 158.83C155.411 159.246 155.364 159.691 155.364 160.166ZM170.112 162.803V155.49H171.747V165H170.191L170.112 162.803ZM170.42 160.799L171.097 160.781C171.097 161.414 171.029 162 170.895 162.539C170.766 163.072 170.555 163.535 170.262 163.928C169.969 164.32 169.585 164.628 169.11 164.851C168.636 165.067 168.059 165.176 167.379 165.176C166.916 165.176 166.491 165.108 166.104 164.974C165.724 164.839 165.396 164.631 165.12 164.35C164.845 164.068 164.631 163.702 164.479 163.251C164.332 162.8 164.259 162.258 164.259 161.625V155.49H165.885V161.643C165.885 162.07 165.932 162.425 166.025 162.706C166.125 162.981 166.257 163.201 166.421 163.365C166.591 163.523 166.778 163.635 166.983 163.699C167.194 163.764 167.411 163.796 167.634 163.796C168.325 163.796 168.873 163.664 169.277 163.4C169.682 163.131 169.972 162.771 170.147 162.319C170.329 161.862 170.42 161.355 170.42 160.799ZM178.031 163.84C178.418 163.84 178.775 163.761 179.104 163.603C179.432 163.444 179.701 163.228 179.912 162.952C180.123 162.671 180.243 162.352 180.272 161.994H181.819C181.79 162.557 181.6 163.081 181.248 163.567C180.902 164.048 180.448 164.438 179.886 164.736C179.323 165.029 178.705 165.176 178.031 165.176C177.316 165.176 176.692 165.05 176.159 164.798C175.632 164.546 175.192 164.2 174.841 163.761C174.495 163.321 174.234 162.817 174.059 162.249C173.889 161.675 173.804 161.068 173.804 160.43V160.061C173.804 159.422 173.889 158.818 174.059 158.25C174.234 157.676 174.495 157.169 174.841 156.729C175.192 156.29 175.632 155.944 176.159 155.692C176.692 155.44 177.316 155.314 178.031 155.314C178.775 155.314 179.426 155.467 179.982 155.771C180.539 156.07 180.976 156.48 181.292 157.002C181.614 157.518 181.79 158.104 181.819 158.76H180.272C180.243 158.367 180.132 158.013 179.938 157.696C179.751 157.38 179.493 157.128 179.165 156.94C178.843 156.747 178.465 156.65 178.031 156.65C177.533 156.65 177.114 156.75 176.774 156.949C176.44 157.143 176.174 157.406 175.975 157.74C175.781 158.068 175.641 158.435 175.553 158.839C175.471 159.237 175.43 159.645 175.43 160.061V160.43C175.43 160.846 175.471 161.256 175.553 161.66C175.635 162.064 175.772 162.431 175.966 162.759C176.165 163.087 176.432 163.351 176.766 163.55C177.105 163.743 177.527 163.84 178.031 163.84ZM187.629 155.49V156.738H182.487V155.49H187.629ZM184.228 153.179H185.854V162.645C185.854 162.967 185.903 163.21 186.003 163.374C186.103 163.538 186.231 163.646 186.39 163.699C186.548 163.752 186.718 163.778 186.899 163.778C187.034 163.778 187.175 163.767 187.321 163.743C187.474 163.714 187.588 163.69 187.664 163.673L187.673 165C187.544 165.041 187.374 165.079 187.163 165.114C186.958 165.155 186.709 165.176 186.416 165.176C186.018 165.176 185.651 165.097 185.317 164.938C184.983 164.78 184.717 164.517 184.518 164.147C184.324 163.772 184.228 163.269 184.228 162.636V153.179ZM191.303 155.49V165H189.668V155.49H191.303ZM189.545 152.968C189.545 152.704 189.624 152.481 189.782 152.3C189.946 152.118 190.187 152.027 190.503 152.027C190.813 152.027 191.051 152.118 191.215 152.3C191.385 152.481 191.47 152.704 191.47 152.968C191.47 153.22 191.385 153.437 191.215 153.618C191.051 153.794 190.813 153.882 190.503 153.882C190.187 153.882 189.946 153.794 189.782 153.618C189.624 153.437 189.545 153.22 189.545 152.968ZM196.805 163.532L199.406 155.49H201.067L197.648 165H196.559L196.805 163.532ZM194.634 155.49L197.314 163.576L197.499 165H196.409L192.964 155.49H194.634ZM204.398 155.49V165H202.764V155.49H204.398ZM202.641 152.968C202.641 152.704 202.72 152.481 202.878 152.3C203.042 152.118 203.282 152.027 203.599 152.027C203.909 152.027 204.146 152.118 204.311 152.3C204.48 152.481 204.565 152.704 204.565 152.968C204.565 153.22 204.48 153.437 204.311 153.618C204.146 153.794 203.909 153.882 203.599 153.882C203.282 153.882 203.042 153.794 202.878 153.618C202.72 153.437 202.641 153.22 202.641 152.968ZM210.99 155.49V156.738H205.849V155.49H210.99ZM207.589 153.179H209.215V162.645C209.215 162.967 209.265 163.21 209.364 163.374C209.464 163.538 209.593 163.646 209.751 163.699C209.909 163.752 210.079 163.778 210.261 163.778C210.396 163.778 210.536 163.767 210.683 163.743C210.835 163.714 210.949 163.69 211.025 163.673L211.034 165C210.905 165.041 210.735 165.079 210.524 165.114C210.319 165.155 210.07 165.176 209.777 165.176C209.379 165.176 209.013 165.097 208.679 164.938C208.345 164.78 208.078 164.517 207.879 164.147C207.686 163.772 207.589 163.269 207.589 162.636V153.179ZM215.569 164.016L218.215 155.49H219.955L216.141 166.468C216.053 166.702 215.936 166.954 215.789 167.224C215.648 167.499 215.467 167.76 215.244 168.006C215.021 168.252 214.752 168.451 214.436 168.604C214.125 168.762 213.753 168.841 213.319 168.841C213.19 168.841 213.026 168.823 212.827 168.788C212.628 168.753 212.487 168.724 212.405 168.7L212.396 167.382C212.443 167.388 212.517 167.394 212.616 167.399C212.722 167.411 212.795 167.417 212.836 167.417C213.205 167.417 213.519 167.367 213.776 167.268C214.034 167.174 214.251 167.013 214.427 166.784C214.608 166.562 214.764 166.254 214.893 165.861L215.569 164.016ZM213.627 155.49L216.097 162.873L216.519 164.587L215.35 165.185L211.852 155.49H213.627Z" fill="#333333" style="fill:#333333;fill:color(display-p3 0.2000 0.2000 0.2000);fill-opacity:1;"/>
<path d="M3.91113 113.672H7.63184L13.1104 129.331L18.5889 113.672H22.3096L14.6045 135H11.6162L3.91113 113.672ZM1.9043 113.672H5.61035L6.28418 128.936V135H1.9043V113.672ZM20.6104 113.672H24.3311V135H19.9365V128.936L20.6104 113.672ZM32.6221 133.213L36.8262 119.15H41.3525L34.9805 137.388C34.8438 137.788 34.6582 138.218 34.4238 138.677C34.1992 139.136 33.8916 139.57 33.501 139.98C33.1201 140.4 32.6367 140.742 32.0508 141.006C31.4746 141.27 30.7666 141.401 29.9268 141.401C29.5264 141.401 29.1992 141.377 28.9453 141.328C28.6914 141.279 28.3887 141.211 28.0371 141.123V138.032C28.1445 138.032 28.2568 138.032 28.374 138.032C28.4912 138.042 28.6035 138.047 28.7109 138.047C29.2676 138.047 29.7217 137.983 30.0732 137.856C30.4248 137.729 30.708 137.534 30.9229 137.271C31.1377 137.017 31.3086 136.685 31.4355 136.274L32.6221 133.213ZM30.8643 119.15L34.3066 130.635L34.9072 135.103L32.0361 135.41L26.3379 119.15H30.8643ZM59.5166 113.672V135H55.1367V113.672H59.5166ZM66.0791 113.672V117.114H48.6768V113.672H66.0791ZM74.6484 131.426V124.365C74.6484 123.857 74.5654 123.423 74.3994 123.062C74.2334 122.69 73.9746 122.402 73.623 122.197C73.2812 121.992 72.8369 121.89 72.29 121.89C71.8213 121.89 71.416 121.973 71.0742 122.139C70.7324 122.295 70.4688 122.524 70.2832 122.827C70.0977 123.12 70.0049 123.467 70.0049 123.867H65.7861C65.7861 123.193 65.9424 122.554 66.2549 121.948C66.5674 121.343 67.0215 120.811 67.6172 120.352C68.2129 119.883 68.9209 119.517 69.7412 119.253C70.5713 118.989 71.499 118.857 72.5244 118.857C73.7549 118.857 74.8486 119.062 75.8057 119.473C76.7627 119.883 77.5146 120.498 78.0615 121.318C78.6182 122.139 78.8965 123.164 78.8965 124.395V131.177C78.8965 132.046 78.9502 132.759 79.0576 133.315C79.165 133.862 79.3213 134.341 79.5264 134.751V135H75.2637C75.0586 134.57 74.9023 134.033 74.7949 133.389C74.6973 132.734 74.6484 132.08 74.6484 131.426ZM75.2051 125.347L75.2344 127.734H72.876C72.3193 127.734 71.8359 127.798 71.4258 127.925C71.0156 128.052 70.6787 128.232 70.415 128.467C70.1514 128.691 69.9561 128.955 69.8291 129.258C69.7119 129.561 69.6533 129.893 69.6533 130.254C69.6533 130.615 69.7363 130.942 69.9023 131.235C70.0684 131.519 70.3076 131.743 70.6201 131.909C70.9326 132.065 71.2988 132.144 71.7188 132.144C72.3535 132.144 72.9053 132.017 73.374 131.763C73.8428 131.509 74.2041 131.196 74.458 130.825C74.7217 130.454 74.8584 130.103 74.8682 129.771L75.9814 131.558C75.8252 131.958 75.6104 132.373 75.3369 132.803C75.0732 133.232 74.7363 133.638 74.3262 134.019C73.916 134.39 73.4229 134.697 72.8467 134.941C72.2705 135.176 71.5869 135.293 70.7959 135.293C69.79 135.293 68.877 135.093 68.0566 134.692C67.2461 134.282 66.6016 133.721 66.123 133.008C65.6543 132.285 65.4199 131.465 65.4199 130.547C65.4199 129.717 65.5762 128.979 65.8887 128.335C66.2012 127.69 66.6602 127.148 67.2656 126.709C67.8809 126.26 68.6475 125.923 69.5654 125.698C70.4834 125.464 71.5479 125.347 72.7588 125.347H75.2051ZM90.7178 130.62C90.7178 130.317 90.6299 130.044 90.4541 129.8C90.2783 129.556 89.9512 129.331 89.4727 129.126C89.0039 128.911 88.3252 128.716 87.4365 128.54C86.6357 128.364 85.8887 128.145 85.1953 127.881C84.5117 127.607 83.916 127.28 83.4082 126.899C82.9102 126.519 82.5195 126.069 82.2363 125.552C81.9531 125.024 81.8115 124.424 81.8115 123.75C81.8115 123.086 81.9531 122.461 82.2363 121.875C82.5293 121.289 82.9443 120.771 83.4814 120.322C84.0283 119.863 84.6924 119.507 85.4736 119.253C86.2646 118.989 87.1533 118.857 88.1396 118.857C89.5166 118.857 90.6982 119.077 91.6846 119.517C92.6807 119.956 93.4424 120.562 93.9697 121.333C94.5068 122.095 94.7754 122.964 94.7754 123.94H90.5566C90.5566 123.53 90.4688 123.164 90.293 122.842C90.127 122.51 89.8633 122.251 89.502 122.065C89.1504 121.87 88.6914 121.772 88.125 121.772C87.6562 121.772 87.251 121.855 86.9092 122.021C86.5674 122.178 86.3037 122.393 86.1182 122.666C85.9424 122.93 85.8545 123.223 85.8545 123.545C85.8545 123.789 85.9033 124.009 86.001 124.204C86.1084 124.39 86.2793 124.561 86.5137 124.717C86.748 124.873 87.0508 125.02 87.4219 125.156C87.8027 125.283 88.2715 125.4 88.8281 125.508C89.9707 125.742 90.9912 126.05 91.8896 126.431C92.7881 126.802 93.501 127.31 94.0283 127.954C94.5557 128.589 94.8193 129.424 94.8193 130.459C94.8193 131.162 94.6631 131.807 94.3506 132.393C94.0381 132.979 93.5889 133.491 93.0029 133.931C92.417 134.36 91.7139 134.697 90.8936 134.941C90.083 135.176 89.1699 135.293 88.1543 135.293C86.6797 135.293 85.4297 135.029 84.4043 134.502C83.3887 133.975 82.6172 133.306 82.0898 132.495C81.5723 131.675 81.3135 130.835 81.3135 129.976H85.3125C85.332 130.552 85.4785 131.016 85.752 131.367C86.0352 131.719 86.3916 131.973 86.8213 132.129C87.2607 132.285 87.7344 132.363 88.2422 132.363C88.7891 132.363 89.2432 132.29 89.6045 132.144C89.9658 131.987 90.2393 131.782 90.4248 131.528C90.6201 131.265 90.7178 130.962 90.7178 130.62ZM101.777 112.485V135H97.5586V112.485H101.777ZM111.768 119.15L104.883 127.002L101.191 130.737L99.6533 127.69L102.583 123.97L106.699 119.15H111.768ZM107.388 135L102.7 127.676L105.615 125.127L112.251 135H107.388ZM123.325 113.672H127.046L132.524 129.331L138.003 113.672H141.724L134.019 135H131.03L123.325 113.672ZM121.318 113.672H125.024L125.698 128.936V135H121.318V113.672ZM140.024 113.672H143.745V135H139.351V128.936L140.024 113.672ZM155.889 131.426V124.365C155.889 123.857 155.806 123.423 155.64 123.062C155.474 122.69 155.215 122.402 154.863 122.197C154.521 121.992 154.077 121.89 153.53 121.89C153.062 121.89 152.656 121.973 152.314 122.139C151.973 122.295 151.709 122.524 151.523 122.827C151.338 123.12 151.245 123.467 151.245 123.867H147.026C147.026 123.193 147.183 122.554 147.495 121.948C147.808 121.343 148.262 120.811 148.857 120.352C149.453 119.883 150.161 119.517 150.981 119.253C151.812 118.989 152.739 118.857 153.765 118.857C154.995 118.857 156.089 119.062 157.046 119.473C158.003 119.883 158.755 120.498 159.302 121.318C159.858 122.139 160.137 123.164 160.137 124.395V131.177C160.137 132.046 160.19 132.759 160.298 133.315C160.405 133.862 160.562 134.341 160.767 134.751V135H156.504C156.299 134.57 156.143 134.033 156.035 133.389C155.938 132.734 155.889 132.08 155.889 131.426ZM156.445 125.347L156.475 127.734H154.116C153.56 127.734 153.076 127.798 152.666 127.925C152.256 128.052 151.919 128.232 151.655 128.467C151.392 128.691 151.196 128.955 151.069 129.258C150.952 129.561 150.894 129.893 150.894 130.254C150.894 130.615 150.977 130.942 151.143 131.235C151.309 131.519 151.548 131.743 151.86 131.909C152.173 132.065 152.539 132.144 152.959 132.144C153.594 132.144 154.146 132.017 154.614 131.763C155.083 131.509 155.444 131.196 155.698 130.825C155.962 130.454 156.099 130.103 156.108 129.771L157.222 131.558C157.065 131.958 156.851 132.373 156.577 132.803C156.313 133.232 155.977 133.638 155.566 134.019C155.156 134.39 154.663 134.697 154.087 134.941C153.511 135.176 152.827 135.293 152.036 135.293C151.03 135.293 150.117 135.093 149.297 134.692C148.486 134.282 147.842 133.721 147.363 133.008C146.895 132.285 146.66 131.465 146.66 130.547C146.66 129.717 146.816 128.979 147.129 128.335C147.441 127.69 147.9 127.148 148.506 126.709C149.121 126.26 149.888 125.923 150.806 125.698C151.724 125.464 152.788 125.347 153.999 125.347H156.445ZM167.52 122.534V135H163.301V119.15H167.256L167.52 122.534ZM166.904 126.519H165.762C165.762 125.347 165.913 124.292 166.216 123.354C166.519 122.407 166.943 121.602 167.49 120.938C168.037 120.264 168.687 119.751 169.438 119.399C170.2 119.038 171.05 118.857 171.987 118.857C172.729 118.857 173.408 118.965 174.023 119.18C174.639 119.395 175.166 119.736 175.605 120.205C176.055 120.674 176.396 121.294 176.631 122.065C176.875 122.837 176.997 123.779 176.997 124.893V135H172.749V124.878C172.749 124.175 172.651 123.628 172.456 123.237C172.261 122.847 171.973 122.573 171.592 122.417C171.221 122.251 170.762 122.168 170.215 122.168C169.648 122.168 169.155 122.28 168.735 122.505C168.325 122.729 167.983 123.042 167.71 123.442C167.446 123.833 167.246 124.292 167.109 124.819C166.973 125.347 166.904 125.913 166.904 126.519ZM188.76 131.426V124.365C188.76 123.857 188.677 123.423 188.511 123.062C188.345 122.69 188.086 122.402 187.734 122.197C187.393 121.992 186.948 121.89 186.401 121.89C185.933 121.89 185.527 121.973 185.186 122.139C184.844 122.295 184.58 122.524 184.395 122.827C184.209 123.12 184.116 123.467 184.116 123.867H179.897C179.897 123.193 180.054 122.554 180.366 121.948C180.679 121.343 181.133 120.811 181.729 120.352C182.324 119.883 183.032 119.517 183.853 119.253C184.683 118.989 185.61 118.857 186.636 118.857C187.866 118.857 188.96 119.062 189.917 119.473C190.874 119.883 191.626 120.498 192.173 121.318C192.729 122.139 193.008 123.164 193.008 124.395V131.177C193.008 132.046 193.062 132.759 193.169 133.315C193.276 133.862 193.433 134.341 193.638 134.751V135H189.375C189.17 134.57 189.014 134.033 188.906 133.389C188.809 132.734 188.76 132.08 188.76 131.426ZM189.316 125.347L189.346 127.734H186.987C186.431 127.734 185.947 127.798 185.537 127.925C185.127 128.052 184.79 128.232 184.526 128.467C184.263 128.691 184.067 128.955 183.94 129.258C183.823 129.561 183.765 129.893 183.765 130.254C183.765 130.615 183.848 130.942 184.014 131.235C184.18 131.519 184.419 131.743 184.731 131.909C185.044 132.065 185.41 132.144 185.83 132.144C186.465 132.144 187.017 132.017 187.485 131.763C187.954 131.509 188.315 131.196 188.569 130.825C188.833 130.454 188.97 130.103 188.979 129.771L190.093 131.558C189.937 131.958 189.722 132.373 189.448 132.803C189.185 133.232 188.848 133.638 188.438 134.019C188.027 134.39 187.534 134.697 186.958 134.941C186.382 135.176 185.698 135.293 184.907 135.293C183.901 135.293 182.988 135.093 182.168 134.692C181.357 134.282 180.713 133.721 180.234 133.008C179.766 132.285 179.531 131.465 179.531 130.547C179.531 129.717 179.688 128.979 180 128.335C180.312 127.69 180.771 127.148 181.377 126.709C181.992 126.26 182.759 125.923 183.677 125.698C184.595 125.464 185.659 125.347 186.87 125.347H189.316ZM206.294 119.15H210.117V134.473C210.117 135.918 209.795 137.144 209.15 138.149C208.516 139.165 207.627 139.932 206.484 140.449C205.342 140.977 204.014 141.24 202.5 141.24C201.836 141.24 201.133 141.152 200.391 140.977C199.658 140.801 198.955 140.527 198.281 140.156C197.617 139.785 197.061 139.316 196.611 138.75L198.472 136.26C198.96 136.826 199.526 137.266 200.171 137.578C200.815 137.9 201.528 138.062 202.31 138.062C203.071 138.062 203.716 137.92 204.243 137.637C204.771 137.363 205.176 136.958 205.459 136.421C205.742 135.894 205.884 135.254 205.884 134.502V122.812L206.294 119.15ZM195.63 127.266V126.958C195.63 125.747 195.776 124.648 196.069 123.662C196.372 122.666 196.797 121.812 197.344 121.099C197.9 120.386 198.574 119.834 199.365 119.443C200.156 119.053 201.05 118.857 202.046 118.857C203.101 118.857 203.984 119.053 204.697 119.443C205.41 119.834 205.996 120.391 206.455 121.113C206.914 121.826 207.271 122.671 207.524 123.647C207.788 124.614 207.993 125.674 208.14 126.826V127.5C207.993 128.604 207.773 129.629 207.48 130.576C207.188 131.523 206.802 132.354 206.323 133.066C205.845 133.77 205.249 134.316 204.536 134.707C203.833 135.098 202.993 135.293 202.017 135.293C201.04 135.293 200.156 135.093 199.365 134.692C198.584 134.292 197.915 133.73 197.358 133.008C196.802 132.285 196.372 131.436 196.069 130.459C195.776 129.482 195.63 128.418 195.63 127.266ZM199.849 126.958V127.266C199.849 127.92 199.912 128.53 200.039 129.097C200.166 129.663 200.361 130.166 200.625 130.605C200.898 131.035 201.235 131.372 201.636 131.616C202.046 131.851 202.529 131.968 203.086 131.968C203.857 131.968 204.487 131.807 204.976 131.484C205.464 131.152 205.83 130.698 206.074 130.122C206.318 129.546 206.46 128.882 206.499 128.13V126.211C206.479 125.596 206.396 125.044 206.25 124.556C206.104 124.058 205.898 123.633 205.635 123.281C205.371 122.93 205.029 122.656 204.609 122.461C204.189 122.266 203.691 122.168 203.115 122.168C202.559 122.168 202.075 122.295 201.665 122.549C201.265 122.793 200.928 123.13 200.654 123.56C200.391 123.989 200.19 124.497 200.054 125.083C199.917 125.659 199.849 126.284 199.849 126.958ZM220.693 135.293C219.463 135.293 218.359 135.098 217.383 134.707C216.406 134.307 215.576 133.755 214.893 133.052C214.219 132.349 213.701 131.533 213.34 130.605C212.979 129.668 212.798 128.672 212.798 127.617V127.031C212.798 125.83 212.969 124.731 213.311 123.735C213.652 122.739 214.141 121.875 214.775 121.143C215.42 120.41 216.201 119.849 217.119 119.458C218.037 119.058 219.072 118.857 220.225 118.857C221.348 118.857 222.344 119.043 223.213 119.414C224.082 119.785 224.81 120.312 225.396 120.996C225.991 121.68 226.44 122.5 226.743 123.457C227.046 124.404 227.197 125.459 227.197 126.621V128.379H214.6V125.566H223.052V125.244C223.052 124.658 222.944 124.136 222.729 123.677C222.524 123.208 222.212 122.837 221.792 122.563C221.372 122.29 220.835 122.153 220.181 122.153C219.624 122.153 219.146 122.275 218.745 122.52C218.345 122.764 218.018 123.105 217.764 123.545C217.52 123.984 217.334 124.502 217.207 125.098C217.09 125.684 217.031 126.328 217.031 127.031V127.617C217.031 128.252 217.119 128.838 217.295 129.375C217.48 129.912 217.739 130.376 218.071 130.767C218.413 131.157 218.823 131.46 219.302 131.675C219.79 131.89 220.342 131.997 220.957 131.997C221.719 131.997 222.427 131.851 223.081 131.558C223.745 131.255 224.316 130.801 224.795 130.195L226.846 132.422C226.514 132.9 226.06 133.359 225.483 133.799C224.917 134.238 224.233 134.6 223.433 134.883C222.632 135.156 221.719 135.293 220.693 135.293ZM233.818 122.607V135H229.6V119.15H233.569L233.818 122.607ZM238.594 119.048L238.521 122.959C238.315 122.93 238.066 122.905 237.773 122.886C237.49 122.856 237.231 122.842 236.997 122.842C236.401 122.842 235.884 122.92 235.444 123.076C235.015 123.223 234.653 123.442 234.36 123.735C234.077 124.028 233.862 124.385 233.716 124.805C233.579 125.225 233.501 125.703 233.481 126.24L232.632 125.977C232.632 124.951 232.734 124.009 232.939 123.149C233.145 122.28 233.442 121.523 233.833 120.879C234.233 120.234 234.722 119.736 235.298 119.385C235.874 119.033 236.533 118.857 237.275 118.857C237.51 118.857 237.749 118.877 237.993 118.916C238.237 118.945 238.438 118.989 238.594 119.048Z" fill="#333333" style="fill:#333333;fill:color(display-p3 0.2000 0.2000 0.2000);fill-opacity:1;"/>
<g clip-path="url(#clip0_1_514)">
<path d="M120 86.1667C98.3683 86.1667 80.8333 68.6318 80.8333 47C80.8333 25.3683 98.3683 7.83334 120 7.83334C141.632 7.83334 159.167 25.3683 159.167 47C159.167 68.6318 141.632 86.1667 120 86.1667ZM120 78.3333C128.31 78.3333 136.28 75.0322 142.156 69.156C148.032 63.2799 151.333 55.3101 151.333 47C151.333 38.6899 148.032 30.7201 142.156 24.844C136.28 18.9679 128.31 15.6667 120 15.6667C111.69 15.6667 103.72 18.9679 97.844 24.844C91.9679 30.7201 88.6667 38.6899 88.6667 47C88.6667 55.3101 91.9679 63.2799 97.844 69.156C103.72 75.0322 111.69 78.3333 120 78.3333ZM116.095 62.6667L99.4767 46.0483L105.015 40.5101L116.095 51.5903L138.248 29.4338L143.79 34.9719L116.095 62.6667Z" fill="#333333" style="fill:#333333;fill:color(display-p3 0.2000 0.2000 0.2000);fill-opacity:1;"/>
</g>
<defs>
<clipPath id="clip0_1_514">
<rect width="94" height="94" fill="white" style="fill:white;fill:white;fill-opacity:1;" transform="translate(73)"/>
</clipPath>
</defs>
</svg>
