<svg width="195" height="42" viewBox="0 0 195 42" fill="none" xmlns="http://www.w3.org/2000/svg">
<path d="M20.8333 41.6667C9.32708 41.6667 0 32.3396 0 20.8333C0 9.32708 9.32708 0 20.8333 0C32.3396 0 41.6667 9.32708 41.6667 20.8333C41.6667 32.3396 32.3396 41.6667 20.8333 41.6667ZM20.8333 37.5C25.2536 37.5 29.4928 35.7441 32.6184 32.6184C35.7441 29.4928 37.5 25.2536 37.5 20.8333C37.5 16.4131 35.7441 12.1738 32.6184 9.04822C29.4928 5.92261 25.2536 4.16667 20.8333 4.16667C16.4131 4.16667 12.1738 5.92261 9.04822 9.04822C5.92261 12.1738 4.16667 16.4131 4.16667 20.8333C4.16667 25.2536 5.92261 29.4928 9.04822 32.6184C12.1738 35.7441 16.4131 37.5 20.8333 37.5ZM18.7563 29.1667L9.91667 20.3271L12.8625 17.3813L18.7563 23.275L30.5396 11.4896L33.4875 14.4354L18.7563 29.1667Z" fill="white" style="fill:white;fill:white;fill-opacity:1;"/>
<path d="M53.3467 9.20312H55.5791L58.8662 18.5986L62.1533 9.20312H64.3857L59.7627 22H57.9697L53.3467 9.20312ZM52.1426 9.20312H54.3662L54.7705 18.3613V22H52.1426V9.20312ZM63.3662 9.20312H65.5986V22H62.9619V18.3613L63.3662 9.20312ZM70.5732 20.9277L73.0957 12.4902H75.8115L71.9883 23.4326C71.9062 23.6729 71.7949 23.9307 71.6543 24.2061C71.5195 24.4814 71.335 24.7422 71.1006 24.9883C70.8721 25.2402 70.582 25.4453 70.2305 25.6035C69.8848 25.7617 69.46 25.8408 68.9561 25.8408C68.7158 25.8408 68.5195 25.8262 68.3672 25.7969C68.2148 25.7676 68.0332 25.7266 67.8223 25.6738V23.8193C67.8867 23.8193 67.9541 23.8193 68.0244 23.8193C68.0947 23.8252 68.1621 23.8281 68.2266 23.8281C68.5605 23.8281 68.833 23.79 69.0439 23.7139C69.2549 23.6377 69.4248 23.5205 69.5537 23.3623C69.6826 23.21 69.7852 23.0107 69.8613 22.7646L70.5732 20.9277ZM69.5186 12.4902L71.584 19.3809L71.9443 22.0615L70.2217 22.2461L66.8027 12.4902H69.5186ZM86.71 9.20312V22H84.082V9.20312H86.71ZM90.6475 9.20312V11.2686H80.2061V9.20312H90.6475ZM95.7891 19.8555V15.6191C95.7891 15.3145 95.7393 15.0537 95.6396 14.8369C95.54 14.6143 95.3848 14.4414 95.1738 14.3184C94.9688 14.1953 94.7021 14.1338 94.374 14.1338C94.0928 14.1338 93.8496 14.1836 93.6445 14.2832C93.4395 14.377 93.2812 14.5146 93.1699 14.6963C93.0586 14.8721 93.0029 15.0801 93.0029 15.3203H90.4717C90.4717 14.916 90.5654 14.5322 90.7529 14.1689C90.9404 13.8057 91.2129 13.4863 91.5703 13.2109C91.9277 12.9297 92.3525 12.71 92.8447 12.5518C93.3428 12.3936 93.8994 12.3145 94.5146 12.3145C95.2529 12.3145 95.9092 12.4375 96.4834 12.6836C97.0576 12.9297 97.5088 13.2988 97.8369 13.791C98.1709 14.2832 98.3379 14.8984 98.3379 15.6367V19.7061C98.3379 20.2275 98.3701 20.6553 98.4346 20.9893C98.499 21.3174 98.5928 21.6045 98.7158 21.8506V22H96.1582C96.0352 21.7422 95.9414 21.4199 95.877 21.0332C95.8184 20.6406 95.7891 20.248 95.7891 19.8555ZM96.123 16.208L96.1406 17.6406H94.7256C94.3916 17.6406 94.1016 17.6787 93.8555 17.7549C93.6094 17.8311 93.4072 17.9395 93.249 18.0801C93.0908 18.2148 92.9736 18.373 92.8975 18.5547C92.8271 18.7363 92.792 18.9355 92.792 19.1523C92.792 19.3691 92.8418 19.5654 92.9414 19.7412C93.041 19.9111 93.1846 20.0459 93.3721 20.1455C93.5596 20.2393 93.7793 20.2861 94.0312 20.2861C94.4121 20.2861 94.7432 20.21 95.0244 20.0576C95.3057 19.9053 95.5225 19.7178 95.6748 19.4951C95.833 19.2725 95.915 19.0615 95.9209 18.8623L96.5889 19.9346C96.4951 20.1748 96.3662 20.4238 96.2021 20.6816C96.0439 20.9395 95.8418 21.1826 95.5957 21.4111C95.3496 21.6338 95.0537 21.8184 94.708 21.9648C94.3623 22.1055 93.9521 22.1758 93.4775 22.1758C92.874 22.1758 92.3262 22.0557 91.834 21.8154C91.3477 21.5693 90.9609 21.2324 90.6738 20.8047C90.3926 20.3711 90.252 19.8789 90.252 19.3281C90.252 18.8301 90.3457 18.3877 90.5332 18.001C90.7207 17.6143 90.9961 17.2891 91.3594 17.0254C91.7285 16.7559 92.1885 16.5537 92.7393 16.4189C93.29 16.2783 93.9287 16.208 94.6553 16.208H96.123ZM105.431 19.3721C105.431 19.1904 105.378 19.0264 105.272 18.8799C105.167 18.7334 104.971 18.5986 104.684 18.4756C104.402 18.3467 103.995 18.2295 103.462 18.124C102.981 18.0186 102.533 17.8867 102.117 17.7285C101.707 17.5645 101.35 17.3682 101.045 17.1396C100.746 16.9111 100.512 16.6416 100.342 16.3311C100.172 16.0146 100.087 15.6543 100.087 15.25C100.087 14.8516 100.172 14.4766 100.342 14.125C100.518 13.7734 100.767 13.4629 101.089 13.1934C101.417 12.918 101.815 12.7041 102.284 12.5518C102.759 12.3936 103.292 12.3145 103.884 12.3145C104.71 12.3145 105.419 12.4463 106.011 12.71C106.608 12.9736 107.065 13.3369 107.382 13.7998C107.704 14.2568 107.865 14.7783 107.865 15.3643H105.334C105.334 15.1182 105.281 14.8984 105.176 14.7051C105.076 14.5059 104.918 14.3506 104.701 14.2393C104.49 14.1221 104.215 14.0635 103.875 14.0635C103.594 14.0635 103.351 14.1133 103.146 14.2129C102.94 14.3066 102.782 14.4355 102.671 14.5996C102.565 14.7578 102.513 14.9336 102.513 15.127C102.513 15.2734 102.542 15.4053 102.601 15.5225C102.665 15.6338 102.768 15.7363 102.908 15.8301C103.049 15.9238 103.23 16.0117 103.453 16.0938C103.682 16.1699 103.963 16.2402 104.297 16.3047C104.982 16.4453 105.595 16.6299 106.134 16.8584C106.673 17.0811 107.101 17.3857 107.417 17.7725C107.733 18.1533 107.892 18.6543 107.892 19.2754C107.892 19.6973 107.798 20.084 107.61 20.4355C107.423 20.7871 107.153 21.0947 106.802 21.3584C106.45 21.6162 106.028 21.8184 105.536 21.9648C105.05 22.1055 104.502 22.1758 103.893 22.1758C103.008 22.1758 102.258 22.0176 101.643 21.7012C101.033 21.3848 100.57 20.9834 100.254 20.4971C99.9434 20.0049 99.7881 19.501 99.7881 18.9854H102.188C102.199 19.3311 102.287 19.6094 102.451 19.8203C102.621 20.0312 102.835 20.1836 103.093 20.2773C103.356 20.3711 103.641 20.418 103.945 20.418C104.273 20.418 104.546 20.374 104.763 20.2861C104.979 20.1924 105.144 20.0693 105.255 19.917C105.372 19.7588 105.431 19.5771 105.431 19.3721ZM112.066 8.49121V22H109.535V8.49121H112.066ZM118.061 12.4902L113.93 17.2012L111.715 19.4424L110.792 17.6143L112.55 15.3818L115.02 12.4902H118.061ZM115.433 22L112.62 17.6055L114.369 16.0762L118.351 22H115.433ZM124.995 9.20312H127.228L130.515 18.5986L133.802 9.20312H136.034L131.411 22H129.618L124.995 9.20312ZM123.791 9.20312H126.015L126.419 18.3613V22H123.791V9.20312ZM135.015 9.20312H137.247V22H134.61V18.3613L135.015 9.20312ZM144.533 19.8555V15.6191C144.533 15.3145 144.483 15.0537 144.384 14.8369C144.284 14.6143 144.129 14.4414 143.918 14.3184C143.713 14.1953 143.446 14.1338 143.118 14.1338C142.837 14.1338 142.594 14.1836 142.389 14.2832C142.184 14.377 142.025 14.5146 141.914 14.6963C141.803 14.8721 141.747 15.0801 141.747 15.3203H139.216C139.216 14.916 139.31 14.5322 139.497 14.1689C139.685 13.8057 139.957 13.4863 140.314 13.2109C140.672 12.9297 141.097 12.71 141.589 12.5518C142.087 12.3936 142.644 12.3145 143.259 12.3145C143.997 12.3145 144.653 12.4375 145.228 12.6836C145.802 12.9297 146.253 13.2988 146.581 13.791C146.915 14.2832 147.082 14.8984 147.082 15.6367V19.7061C147.082 20.2275 147.114 20.6553 147.179 20.9893C147.243 21.3174 147.337 21.6045 147.46 21.8506V22H144.902C144.779 21.7422 144.686 21.4199 144.621 21.0332C144.562 20.6406 144.533 20.248 144.533 19.8555ZM144.867 16.208L144.885 17.6406H143.47C143.136 17.6406 142.846 17.6787 142.6 17.7549C142.354 17.8311 142.151 17.9395 141.993 18.0801C141.835 18.2148 141.718 18.373 141.642 18.5547C141.571 18.7363 141.536 18.9355 141.536 19.1523C141.536 19.3691 141.586 19.5654 141.686 19.7412C141.785 19.9111 141.929 20.0459 142.116 20.1455C142.304 20.2393 142.523 20.2861 142.775 20.2861C143.156 20.2861 143.487 20.21 143.769 20.0576C144.05 19.9053 144.267 19.7178 144.419 19.4951C144.577 19.2725 144.659 19.0615 144.665 18.8623L145.333 19.9346C145.239 20.1748 145.11 20.4238 144.946 20.6816C144.788 20.9395 144.586 21.1826 144.34 21.4111C144.094 21.6338 143.798 21.8184 143.452 21.9648C143.106 22.1055 142.696 22.1758 142.222 22.1758C141.618 22.1758 141.07 22.0557 140.578 21.8154C140.092 21.5693 139.705 21.2324 139.418 20.8047C139.137 20.3711 138.996 19.8789 138.996 19.3281C138.996 18.8301 139.09 18.3877 139.277 18.001C139.465 17.6143 139.74 17.2891 140.104 17.0254C140.473 16.7559 140.933 16.5537 141.483 16.4189C142.034 16.2783 142.673 16.208 143.399 16.208H144.867ZM151.512 14.5205V22H148.98V12.4902H151.354L151.512 14.5205ZM151.143 16.9111H150.457C150.457 16.208 150.548 15.5752 150.729 15.0127C150.911 14.4443 151.166 13.9609 151.494 13.5625C151.822 13.1582 152.212 12.8506 152.663 12.6396C153.12 12.4229 153.63 12.3145 154.192 12.3145C154.638 12.3145 155.045 12.3789 155.414 12.5078C155.783 12.6367 156.1 12.8418 156.363 13.123C156.633 13.4043 156.838 13.7764 156.979 14.2393C157.125 14.7021 157.198 15.2676 157.198 15.9355V22H154.649V15.9268C154.649 15.5049 154.591 15.1768 154.474 14.9424C154.356 14.708 154.184 14.5439 153.955 14.4502C153.732 14.3506 153.457 14.3008 153.129 14.3008C152.789 14.3008 152.493 14.3682 152.241 14.5029C151.995 14.6377 151.79 14.8252 151.626 15.0654C151.468 15.2998 151.348 15.5752 151.266 15.8916C151.184 16.208 151.143 16.5479 151.143 16.9111ZM164.256 19.8555V15.6191C164.256 15.3145 164.206 15.0537 164.106 14.8369C164.007 14.6143 163.852 14.4414 163.641 14.3184C163.436 14.1953 163.169 14.1338 162.841 14.1338C162.56 14.1338 162.316 14.1836 162.111 14.2832C161.906 14.377 161.748 14.5146 161.637 14.6963C161.525 14.8721 161.47 15.0801 161.47 15.3203H158.938C158.938 14.916 159.032 14.5322 159.22 14.1689C159.407 13.8057 159.68 13.4863 160.037 13.2109C160.395 12.9297 160.819 12.71 161.312 12.5518C161.81 12.3936 162.366 12.3145 162.981 12.3145C163.72 12.3145 164.376 12.4375 164.95 12.6836C165.524 12.9297 165.976 13.2988 166.304 13.791C166.638 14.2832 166.805 14.8984 166.805 15.6367V19.7061C166.805 20.2275 166.837 20.6553 166.901 20.9893C166.966 21.3174 167.06 21.6045 167.183 21.8506V22H164.625C164.502 21.7422 164.408 21.4199 164.344 21.0332C164.285 20.6406 164.256 20.248 164.256 19.8555ZM164.59 16.208L164.607 17.6406H163.192C162.858 17.6406 162.568 17.6787 162.322 17.7549C162.076 17.8311 161.874 17.9395 161.716 18.0801C161.558 18.2148 161.44 18.373 161.364 18.5547C161.294 18.7363 161.259 18.9355 161.259 19.1523C161.259 19.3691 161.309 19.5654 161.408 19.7412C161.508 19.9111 161.651 20.0459 161.839 20.1455C162.026 20.2393 162.246 20.2861 162.498 20.2861C162.879 20.2861 163.21 20.21 163.491 20.0576C163.772 19.9053 163.989 19.7178 164.142 19.4951C164.3 19.2725 164.382 19.0615 164.388 18.8623L165.056 19.9346C164.962 20.1748 164.833 20.4238 164.669 20.6816C164.511 20.9395 164.309 21.1826 164.062 21.4111C163.816 21.6338 163.521 21.8184 163.175 21.9648C162.829 22.1055 162.419 22.1758 161.944 22.1758C161.341 22.1758 160.793 22.0557 160.301 21.8154C159.814 21.5693 159.428 21.2324 159.141 20.8047C158.859 20.3711 158.719 19.8789 158.719 19.3281C158.719 18.8301 158.812 18.3877 159 18.001C159.188 17.6143 159.463 17.2891 159.826 17.0254C160.195 16.7559 160.655 16.5537 161.206 16.4189C161.757 16.2783 162.396 16.208 163.122 16.208H164.59ZM174.776 12.4902H177.07V21.6836C177.07 22.5508 176.877 23.2861 176.49 23.8896C176.109 24.499 175.576 24.959 174.891 25.2695C174.205 25.5859 173.408 25.7441 172.5 25.7441C172.102 25.7441 171.68 25.6914 171.234 25.5859C170.795 25.4805 170.373 25.3164 169.969 25.0938C169.57 24.8711 169.236 24.5898 168.967 24.25L170.083 22.7559C170.376 23.0957 170.716 23.3594 171.103 23.5469C171.489 23.7402 171.917 23.8369 172.386 23.8369C172.843 23.8369 173.229 23.752 173.546 23.582C173.862 23.418 174.105 23.1748 174.275 22.8525C174.445 22.5361 174.53 22.1523 174.53 21.7012V14.6875L174.776 12.4902ZM168.378 17.3594V17.1748C168.378 16.4482 168.466 15.7891 168.642 15.1973C168.823 14.5996 169.078 14.0869 169.406 13.6592C169.74 13.2314 170.145 12.9004 170.619 12.666C171.094 12.4316 171.63 12.3145 172.228 12.3145C172.86 12.3145 173.391 12.4316 173.818 12.666C174.246 12.9004 174.598 13.2344 174.873 13.668C175.148 14.0957 175.362 14.6025 175.515 15.1885C175.673 15.7686 175.796 16.4043 175.884 17.0957V17.5C175.796 18.1621 175.664 18.7773 175.488 19.3457C175.312 19.9141 175.081 20.4121 174.794 20.8398C174.507 21.2617 174.149 21.5898 173.722 21.8242C173.3 22.0586 172.796 22.1758 172.21 22.1758C171.624 22.1758 171.094 22.0557 170.619 21.8154C170.15 21.5752 169.749 21.2383 169.415 20.8047C169.081 20.3711 168.823 19.8613 168.642 19.2754C168.466 18.6895 168.378 18.0508 168.378 17.3594ZM170.909 17.1748V17.3594C170.909 17.752 170.947 18.1182 171.023 18.458C171.1 18.7979 171.217 19.0996 171.375 19.3633C171.539 19.6211 171.741 19.8232 171.981 19.9697C172.228 20.1104 172.518 20.1807 172.852 20.1807C173.314 20.1807 173.692 20.084 173.985 19.8906C174.278 19.6914 174.498 19.4189 174.645 19.0732C174.791 18.7275 174.876 18.3291 174.899 17.8779V16.7266C174.888 16.3574 174.838 16.0264 174.75 15.7334C174.662 15.4346 174.539 15.1797 174.381 14.9688C174.223 14.7578 174.018 14.5938 173.766 14.4766C173.514 14.3594 173.215 14.3008 172.869 14.3008C172.535 14.3008 172.245 14.377 171.999 14.5293C171.759 14.6758 171.557 14.8779 171.393 15.1357C171.234 15.3936 171.114 15.6982 171.032 16.0498C170.95 16.3955 170.909 16.7705 170.909 17.1748ZM183.416 22.1758C182.678 22.1758 182.016 22.0586 181.43 21.8242C180.844 21.584 180.346 21.2529 179.936 20.8311C179.531 20.4092 179.221 19.9199 179.004 19.3633C178.787 18.8008 178.679 18.2031 178.679 17.5703V17.2188C178.679 16.498 178.781 15.8389 178.986 15.2412C179.191 14.6436 179.484 14.125 179.865 13.6855C180.252 13.2461 180.721 12.9092 181.271 12.6748C181.822 12.4346 182.443 12.3145 183.135 12.3145C183.809 12.3145 184.406 12.4258 184.928 12.6484C185.449 12.8711 185.886 13.1875 186.237 13.5977C186.595 14.0078 186.864 14.5 187.046 15.0742C187.228 15.6426 187.318 16.2754 187.318 16.9727V18.0273H179.76V16.3398H184.831V16.1465C184.831 15.7949 184.767 15.4814 184.638 15.2061C184.515 14.9248 184.327 14.7021 184.075 14.5381C183.823 14.374 183.501 14.292 183.108 14.292C182.774 14.292 182.487 14.3652 182.247 14.5117C182.007 14.6582 181.811 14.8633 181.658 15.127C181.512 15.3906 181.4 15.7012 181.324 16.0586C181.254 16.4102 181.219 16.7969 181.219 17.2188V17.5703C181.219 17.9512 181.271 18.3027 181.377 18.625C181.488 18.9473 181.644 19.2256 181.843 19.46C182.048 19.6943 182.294 19.876 182.581 20.0049C182.874 20.1338 183.205 20.1982 183.574 20.1982C184.031 20.1982 184.456 20.1104 184.849 19.9346C185.247 19.7529 185.59 19.4805 185.877 19.1172L187.107 20.4531C186.908 20.7402 186.636 21.0156 186.29 21.2793C185.95 21.543 185.54 21.7598 185.06 21.9297C184.579 22.0938 184.031 22.1758 183.416 22.1758ZM191.291 14.5645V22H188.76V12.4902H191.142L191.291 14.5645ZM194.156 12.4287L194.112 14.7754C193.989 14.7578 193.84 14.7432 193.664 14.7314C193.494 14.7139 193.339 14.7051 193.198 14.7051C192.841 14.7051 192.53 14.752 192.267 14.8457C192.009 14.9336 191.792 15.0654 191.616 15.2412C191.446 15.417 191.317 15.6309 191.229 15.8828C191.147 16.1348 191.101 16.4219 191.089 16.7441L190.579 16.5859C190.579 15.9707 190.641 15.4053 190.764 14.8896C190.887 14.3682 191.065 13.9141 191.3 13.5273C191.54 13.1406 191.833 12.8418 192.179 12.6309C192.524 12.4199 192.92 12.3145 193.365 12.3145C193.506 12.3145 193.649 12.3262 193.796 12.3496C193.942 12.3672 194.062 12.3936 194.156 12.4287Z" fill="white" style="fill:white;fill:white;fill-opacity:1;"/>
<path d="M53.2031 28.4688V37H52.0723V28.4688H53.2031ZM56.1738 31.9199V37H55.084V30.6602H56.1152L56.1738 31.9199ZM55.9512 33.5898L55.4473 33.5723C55.4512 33.1387 55.5078 32.7383 55.6172 32.3711C55.7266 32 55.8887 31.6777 56.1035 31.4043C56.3184 31.1309 56.5859 30.9199 56.9062 30.7715C57.2266 30.6191 57.5977 30.543 58.0195 30.543C58.3164 30.543 58.5898 30.5859 58.8398 30.6719C59.0898 30.7539 59.3066 30.8848 59.4902 31.0645C59.6738 31.2441 59.8164 31.4746 59.918 31.7559C60.0195 32.0371 60.0703 32.377 60.0703 32.7754V37H58.9863V32.8281C58.9863 32.4961 58.9297 32.2305 58.8164 32.0312C58.707 31.832 58.5508 31.6875 58.3477 31.5977C58.1445 31.5039 57.9062 31.457 57.6328 31.457C57.3125 31.457 57.0449 31.5137 56.8301 31.627C56.6152 31.7402 56.4434 31.8965 56.3145 32.0957C56.1855 32.2949 56.0918 32.5234 56.0332 32.7812C55.9785 33.0352 55.9512 33.3047 55.9512 33.5898ZM60.0586 32.9922L59.332 33.2148C59.3359 32.8672 59.3926 32.5332 59.502 32.2129C59.6152 31.8926 59.7773 31.6074 59.9883 31.3574C60.2031 31.1074 60.4668 30.9102 60.7793 30.7656C61.0918 30.6172 61.4492 30.543 61.8516 30.543C62.1914 30.543 62.4922 30.5879 62.7539 30.6777C63.0195 30.7676 63.2422 30.9062 63.4219 31.0938C63.6055 31.2773 63.7441 31.5137 63.8379 31.8027C63.9316 32.0918 63.9785 32.4355 63.9785 32.834V37H62.8887V32.8223C62.8887 32.4668 62.832 32.1914 62.7188 31.9961C62.6094 31.7969 62.4531 31.6582 62.25 31.5801C62.0508 31.498 61.8125 31.457 61.5352 31.457C61.2969 31.457 61.0859 31.498 60.9023 31.5801C60.7188 31.6621 60.5645 31.7754 60.4395 31.9199C60.3145 32.0605 60.2188 32.2227 60.1523 32.4062C60.0898 32.5898 60.0586 32.7852 60.0586 32.9922ZM66.7031 31.8789V39.4375H65.6133V30.6602H66.6094L66.7031 31.8789ZM70.9746 33.7773V33.9004C70.9746 34.3613 70.9199 34.7891 70.8105 35.1836C70.7012 35.5742 70.541 35.9141 70.3301 36.2031C70.123 36.4922 69.8672 36.7168 69.5625 36.877C69.2578 37.0371 68.9082 37.1172 68.5137 37.1172C68.1113 37.1172 67.7559 37.0508 67.4473 36.918C67.1387 36.7852 66.877 36.5918 66.6621 36.3379C66.4473 36.084 66.2754 35.7793 66.1465 35.4238C66.0215 35.0684 65.9355 34.668 65.8887 34.2227V33.5664C65.9355 33.0977 66.0234 32.6777 66.1523 32.3066C66.2812 31.9355 66.4512 31.6191 66.6621 31.3574C66.877 31.0918 67.1367 30.8906 67.4414 30.7539C67.7461 30.6133 68.0977 30.543 68.4961 30.543C68.8945 30.543 69.248 30.6211 69.5566 30.7773C69.8652 30.9297 70.125 31.1484 70.3359 31.4336C70.5469 31.7188 70.7051 32.0605 70.8105 32.459C70.9199 32.8535 70.9746 33.293 70.9746 33.7773ZM69.8848 33.9004V33.7773C69.8848 33.4609 69.8516 33.1641 69.7852 32.8867C69.7188 32.6055 69.6152 32.3594 69.4746 32.1484C69.3379 31.9336 69.1621 31.7656 68.9473 31.6445C68.7324 31.5195 68.4766 31.457 68.1797 31.457C67.9062 31.457 67.668 31.5039 67.4648 31.5977C67.2656 31.6914 67.0957 31.8184 66.9551 31.9785C66.8145 32.1348 66.6992 32.3145 66.6094 32.5176C66.5234 32.7168 66.459 32.9238 66.416 33.1387V34.6562C66.4941 34.9297 66.6035 35.1875 66.7441 35.4297C66.8848 35.668 67.0723 35.8613 67.3066 36.0098C67.541 36.1543 67.8359 36.2266 68.1914 36.2266C68.4844 36.2266 68.7363 36.166 68.9473 36.0449C69.1621 35.9199 69.3379 35.75 69.4746 35.5352C69.6152 35.3203 69.7188 35.0742 69.7852 34.7969C69.8516 34.5156 69.8848 34.2168 69.8848 33.9004ZM73.4414 31.6562V37H72.3574V30.6602H73.4121L73.4414 31.6562ZM75.4219 30.625L75.416 31.6328C75.3262 31.6133 75.2402 31.6016 75.1582 31.5977C75.0801 31.5898 74.9902 31.5859 74.8887 31.5859C74.6387 31.5859 74.418 31.625 74.2266 31.7031C74.0352 31.7812 73.873 31.8906 73.7402 32.0312C73.6074 32.1719 73.502 32.3398 73.4238 32.5352C73.3496 32.7266 73.3008 32.9375 73.2773 33.168L72.9727 33.3438C72.9727 32.9609 73.0098 32.6016 73.084 32.2656C73.1621 31.9297 73.2812 31.6328 73.4414 31.375C73.6016 31.1133 73.8047 30.9102 74.0508 30.7656C74.3008 30.6172 74.5977 30.543 74.9414 30.543C75.0195 30.543 75.1094 30.5527 75.2109 30.5723C75.3125 30.5879 75.3828 30.6055 75.4219 30.625ZM76.0195 33.9004V33.7656C76.0195 33.3086 76.0859 32.8848 76.2188 32.4941C76.3516 32.0996 76.543 31.7578 76.793 31.4688C77.043 31.1758 77.3457 30.9492 77.7012 30.7891C78.0566 30.625 78.4551 30.543 78.8965 30.543C79.3418 30.543 79.7422 30.625 80.0977 30.7891C80.457 30.9492 80.7617 31.1758 81.0117 31.4688C81.2656 31.7578 81.459 32.0996 81.5918 32.4941C81.7246 32.8848 81.791 33.3086 81.791 33.7656V33.9004C81.791 34.3574 81.7246 34.7812 81.5918 35.1719C81.459 35.5625 81.2656 35.9043 81.0117 36.1973C80.7617 36.4863 80.459 36.7129 80.1035 36.877C79.752 37.0371 79.3535 37.1172 78.9082 37.1172C78.4629 37.1172 78.0625 37.0371 77.707 36.877C77.3516 36.7129 77.0469 36.4863 76.793 36.1973C76.543 35.9043 76.3516 35.5625 76.2188 35.1719C76.0859 34.7812 76.0195 34.3574 76.0195 33.9004ZM77.1035 33.7656V33.9004C77.1035 34.2168 77.1406 34.5156 77.2148 34.7969C77.2891 35.0742 77.4004 35.3203 77.5488 35.5352C77.7012 35.75 77.8906 35.9199 78.1172 36.0449C78.3438 36.166 78.6074 36.2266 78.9082 36.2266C79.2051 36.2266 79.4648 36.166 79.6875 36.0449C79.9141 35.9199 80.1016 35.75 80.25 35.5352C80.3984 35.3203 80.5098 35.0742 80.584 34.7969C80.6621 34.5156 80.7012 34.2168 80.7012 33.9004V33.7656C80.7012 33.4531 80.6621 33.1582 80.584 32.8809C80.5098 32.5996 80.3965 32.3516 80.2441 32.1367C80.0957 31.918 79.9082 31.7461 79.6816 31.6211C79.459 31.4961 79.1973 31.4336 78.8965 31.4336C78.5996 31.4336 78.3379 31.4961 78.1113 31.6211C77.8887 31.7461 77.7012 31.918 77.5488 32.1367C77.4004 32.3516 77.2891 32.5996 77.2148 32.8809C77.1406 33.1582 77.1035 33.4531 77.1035 33.7656ZM84.9844 36.0215L86.7188 30.6602H87.8262L85.5469 37H84.8203L84.9844 36.0215ZM83.5371 30.6602L85.3242 36.0508L85.4473 37H84.7207L82.4238 30.6602H83.5371ZM91.418 37.1172C90.9766 37.1172 90.5762 37.043 90.2168 36.8945C89.8613 36.7422 89.5547 36.5293 89.2969 36.2559C89.043 35.9824 88.8477 35.6582 88.7109 35.2832C88.5742 34.9082 88.5059 34.498 88.5059 34.0527V33.8066C88.5059 33.291 88.582 32.832 88.7344 32.4297C88.8867 32.0234 89.0938 31.6797 89.3555 31.3984C89.6172 31.1172 89.9141 30.9043 90.2461 30.7598C90.5781 30.6152 90.9219 30.543 91.2773 30.543C91.7305 30.543 92.1211 30.6211 92.4492 30.7773C92.7812 30.9336 93.0527 31.1523 93.2637 31.4336C93.4746 31.7109 93.6309 32.0391 93.7324 32.418C93.834 32.793 93.8848 33.2031 93.8848 33.6484V34.1348H89.1504V33.25H92.8008V33.168C92.7852 32.8867 92.7266 32.6133 92.625 32.3477C92.5273 32.082 92.3711 31.8633 92.1562 31.6914C91.9414 31.5195 91.6484 31.4336 91.2773 31.4336C91.0312 31.4336 90.8047 31.4863 90.5977 31.5918C90.3906 31.6934 90.2129 31.8457 90.0645 32.0488C89.916 32.252 89.8008 32.5 89.7188 32.793C89.6367 33.0859 89.5957 33.4238 89.5957 33.8066V34.0527C89.5957 34.3535 89.6367 34.6367 89.7188 34.9023C89.8047 35.1641 89.9277 35.3945 90.0879 35.5938C90.252 35.793 90.4492 35.9492 90.6797 36.0625C90.9141 36.1758 91.1797 36.2324 91.4766 36.2324C91.8594 36.2324 92.1836 36.1543 92.4492 35.998C92.7148 35.8418 92.9473 35.6328 93.1465 35.3711L93.8027 35.8926C93.666 36.0996 93.4922 36.2969 93.2812 36.4844C93.0703 36.6719 92.8105 36.8242 92.502 36.9414C92.1973 37.0586 91.8359 37.1172 91.418 37.1172ZM99.9082 36.3438L101.672 30.6602H102.832L100.289 37.9785C100.23 38.1348 100.152 38.3027 100.055 38.4824C99.9609 38.666 99.8398 38.8398 99.6914 39.0039C99.543 39.168 99.3633 39.3008 99.1523 39.4023C98.9453 39.5078 98.6973 39.5605 98.4082 39.5605C98.3223 39.5605 98.2129 39.5488 98.0801 39.5254C97.9473 39.502 97.8535 39.4824 97.7988 39.4668L97.793 38.5879C97.8242 38.5918 97.873 38.5957 97.9395 38.5996C98.0098 38.6074 98.0586 38.6113 98.0859 38.6113C98.332 38.6113 98.541 38.5781 98.7129 38.5117C98.8848 38.4492 99.0293 38.3418 99.1465 38.1895C99.2676 38.041 99.3711 37.8359 99.457 37.5742L99.9082 36.3438ZM98.6133 30.6602L100.26 35.582L100.541 36.7246L99.7617 37.123L97.4297 30.6602H98.6133ZM103.43 33.9004V33.7656C103.43 33.3086 103.496 32.8848 103.629 32.4941C103.762 32.0996 103.953 31.7578 104.203 31.4688C104.453 31.1758 104.756 30.9492 105.111 30.7891C105.467 30.625 105.865 30.543 106.307 30.543C106.752 30.543 107.152 30.625 107.508 30.7891C107.867 30.9492 108.172 31.1758 108.422 31.4688C108.676 31.7578 108.869 32.0996 109.002 32.4941C109.135 32.8848 109.201 33.3086 109.201 33.7656V33.9004C109.201 34.3574 109.135 34.7812 109.002 35.1719C108.869 35.5625 108.676 35.9043 108.422 36.1973C108.172 36.4863 107.869 36.7129 107.514 36.877C107.162 37.0371 106.764 37.1172 106.318 37.1172C105.873 37.1172 105.473 37.0371 105.117 36.877C104.762 36.7129 104.457 36.4863 104.203 36.1973C103.953 35.9043 103.762 35.5625 103.629 35.1719C103.496 34.7812 103.43 34.3574 103.43 33.9004ZM104.514 33.7656V33.9004C104.514 34.2168 104.551 34.5156 104.625 34.7969C104.699 35.0742 104.811 35.3203 104.959 35.5352C105.111 35.75 105.301 35.9199 105.527 36.0449C105.754 36.166 106.018 36.2266 106.318 36.2266C106.615 36.2266 106.875 36.166 107.098 36.0449C107.324 35.9199 107.512 35.75 107.66 35.5352C107.809 35.3203 107.92 35.0742 107.994 34.7969C108.072 34.5156 108.111 34.2168 108.111 33.9004V33.7656C108.111 33.4531 108.072 33.1582 107.994 32.8809C107.92 32.5996 107.807 32.3516 107.654 32.1367C107.506 31.918 107.318 31.7461 107.092 31.6211C106.869 31.4961 106.607 31.4336 106.307 31.4336C106.01 31.4336 105.748 31.4961 105.521 31.6211C105.299 31.7461 105.111 31.918 104.959 32.1367C104.811 32.3516 104.699 32.5996 104.625 32.8809C104.551 33.1582 104.514 33.4531 104.514 33.7656ZM114.439 35.5352V30.6602H115.529V37H114.492L114.439 35.5352ZM114.645 34.1992L115.096 34.1875C115.096 34.6094 115.051 35 114.961 35.3594C114.875 35.7148 114.734 36.0234 114.539 36.2852C114.344 36.5469 114.088 36.752 113.771 36.9004C113.455 37.0449 113.07 37.1172 112.617 37.1172C112.309 37.1172 112.025 37.0723 111.768 36.9824C111.514 36.8926 111.295 36.7539 111.111 36.5664C110.928 36.3789 110.785 36.1348 110.684 35.834C110.586 35.5332 110.537 35.1719 110.537 34.75V30.6602H111.621V34.7617C111.621 35.0469 111.652 35.2832 111.715 35.4707C111.781 35.6543 111.869 35.8008 111.979 35.9102C112.092 36.0156 112.217 36.0898 112.354 36.1328C112.494 36.1758 112.639 36.1973 112.787 36.1973C113.248 36.1973 113.613 36.1094 113.883 35.9336C114.152 35.7539 114.346 35.5137 114.463 35.2129C114.584 34.9082 114.645 34.5703 114.645 34.1992ZM118.266 31.6562V37H117.182V30.6602H118.236L118.266 31.6562ZM120.246 30.625L120.24 31.6328C120.15 31.6133 120.064 31.6016 119.982 31.5977C119.904 31.5898 119.814 31.5859 119.713 31.5859C119.463 31.5859 119.242 31.625 119.051 31.7031C118.859 31.7812 118.697 31.8906 118.564 32.0312C118.432 32.1719 118.326 32.3398 118.248 32.5352C118.174 32.7266 118.125 32.9375 118.102 33.168L117.797 33.3438C117.797 32.9609 117.834 32.6016 117.908 32.2656C117.986 31.9297 118.105 31.6328 118.266 31.375C118.426 31.1133 118.629 30.9102 118.875 30.7656C119.125 30.6172 119.422 30.543 119.766 30.543C119.844 30.543 119.934 30.5527 120.035 30.5723C120.137 30.5879 120.207 30.6055 120.246 30.625ZM125.309 31.8789V39.4375H124.219V30.6602H125.215L125.309 31.8789ZM129.58 33.7773V33.9004C129.58 34.3613 129.525 34.7891 129.416 35.1836C129.307 35.5742 129.146 35.9141 128.936 36.2031C128.729 36.4922 128.473 36.7168 128.168 36.877C127.863 37.0371 127.514 37.1172 127.119 37.1172C126.717 37.1172 126.361 37.0508 126.053 36.918C125.744 36.7852 125.482 36.5918 125.268 36.3379C125.053 36.084 124.881 35.7793 124.752 35.4238C124.627 35.0684 124.541 34.668 124.494 34.2227V33.5664C124.541 33.0977 124.629 32.6777 124.758 32.3066C124.887 31.9355 125.057 31.6191 125.268 31.3574C125.482 31.0918 125.742 30.8906 126.047 30.7539C126.352 30.6133 126.703 30.543 127.102 30.543C127.5 30.543 127.854 30.6211 128.162 30.7773C128.471 30.9297 128.73 31.1484 128.941 31.4336C129.152 31.7188 129.311 32.0605 129.416 32.459C129.525 32.8535 129.58 33.293 129.58 33.7773ZM128.49 33.9004V33.7773C128.49 33.4609 128.457 33.1641 128.391 32.8867C128.324 32.6055 128.221 32.3594 128.08 32.1484C127.943 31.9336 127.768 31.7656 127.553 31.6445C127.338 31.5195 127.082 31.457 126.785 31.457C126.512 31.457 126.273 31.5039 126.07 31.5977C125.871 31.6914 125.701 31.8184 125.561 31.9785C125.42 32.1348 125.305 32.3145 125.215 32.5176C125.129 32.7168 125.064 32.9238 125.021 33.1387V34.6562C125.1 34.9297 125.209 35.1875 125.35 35.4297C125.49 35.668 125.678 35.8613 125.912 36.0098C126.146 36.1543 126.441 36.2266 126.797 36.2266C127.09 36.2266 127.342 36.166 127.553 36.0449C127.768 35.9199 127.943 35.75 128.08 35.5352C128.221 35.3203 128.324 35.0742 128.391 34.7969C128.457 34.5156 128.49 34.2168 128.49 33.9004ZM132.047 31.6562V37H130.963V30.6602H132.018L132.047 31.6562ZM134.027 30.625L134.021 31.6328C133.932 31.6133 133.846 31.6016 133.764 31.5977C133.686 31.5898 133.596 31.5859 133.494 31.5859C133.244 31.5859 133.023 31.625 132.832 31.7031C132.641 31.7812 132.479 31.8906 132.346 32.0312C132.213 32.1719 132.107 32.3398 132.029 32.5352C131.955 32.7266 131.906 32.9375 131.883 33.168L131.578 33.3438C131.578 32.9609 131.615 32.6016 131.689 32.2656C131.768 31.9297 131.887 31.6328 132.047 31.375C132.207 31.1133 132.41 30.9102 132.656 30.7656C132.906 30.6172 133.203 30.543 133.547 30.543C133.625 30.543 133.715 30.5527 133.816 30.5723C133.918 30.5879 133.988 30.6055 134.027 30.625ZM134.625 33.9004V33.7656C134.625 33.3086 134.691 32.8848 134.824 32.4941C134.957 32.0996 135.148 31.7578 135.398 31.4688C135.648 31.1758 135.951 30.9492 136.307 30.7891C136.662 30.625 137.061 30.543 137.502 30.543C137.947 30.543 138.348 30.625 138.703 30.7891C139.062 30.9492 139.367 31.1758 139.617 31.4688C139.871 31.7578 140.064 32.0996 140.197 32.4941C140.33 32.8848 140.396 33.3086 140.396 33.7656V33.9004C140.396 34.3574 140.33 34.7812 140.197 35.1719C140.064 35.5625 139.871 35.9043 139.617 36.1973C139.367 36.4863 139.064 36.7129 138.709 36.877C138.357 37.0371 137.959 37.1172 137.514 37.1172C137.068 37.1172 136.668 37.0371 136.312 36.877C135.957 36.7129 135.652 36.4863 135.398 36.1973C135.148 35.9043 134.957 35.5625 134.824 35.1719C134.691 34.7812 134.625 34.3574 134.625 33.9004ZM135.709 33.7656V33.9004C135.709 34.2168 135.746 34.5156 135.82 34.7969C135.895 35.0742 136.006 35.3203 136.154 35.5352C136.307 35.75 136.496 35.9199 136.723 36.0449C136.949 36.166 137.213 36.2266 137.514 36.2266C137.811 36.2266 138.07 36.166 138.293 36.0449C138.52 35.9199 138.707 35.75 138.855 35.5352C139.004 35.3203 139.115 35.0742 139.189 34.7969C139.268 34.5156 139.307 34.2168 139.307 33.9004V33.7656C139.307 33.4531 139.268 33.1582 139.189 32.8809C139.115 32.5996 139.002 32.3516 138.85 32.1367C138.701 31.918 138.514 31.7461 138.287 31.6211C138.064 31.4961 137.803 31.4336 137.502 31.4336C137.205 31.4336 136.943 31.4961 136.717 31.6211C136.494 31.7461 136.307 31.918 136.154 32.1367C136.006 32.3516 135.895 32.5996 135.82 32.8809C135.746 33.1582 135.709 33.4531 135.709 33.7656ZM145.752 35.7695V28H146.842V37H145.846L145.752 35.7695ZM141.486 33.9004V33.7773C141.486 33.293 141.545 32.8535 141.662 32.459C141.783 32.0605 141.953 31.7188 142.172 31.4336C142.395 31.1484 142.658 30.9297 142.963 30.7773C143.271 30.6211 143.615 30.543 143.994 30.543C144.393 30.543 144.74 30.6133 145.037 30.7539C145.338 30.8906 145.592 31.0918 145.799 31.3574C146.01 31.6191 146.176 31.9355 146.297 32.3066C146.418 32.6777 146.502 33.0977 146.549 33.5664V34.1055C146.506 34.5703 146.422 34.9883 146.297 35.3594C146.176 35.7305 146.01 36.0469 145.799 36.3086C145.592 36.5703 145.338 36.7715 145.037 36.9121C144.736 37.0488 144.385 37.1172 143.982 37.1172C143.611 37.1172 143.271 37.0371 142.963 36.877C142.658 36.7168 142.395 36.4922 142.172 36.2031C141.953 35.9141 141.783 35.5742 141.662 35.1836C141.545 34.7891 141.486 34.3613 141.486 33.9004ZM142.576 33.7773V33.9004C142.576 34.2168 142.607 34.5137 142.67 34.791C142.736 35.0684 142.838 35.3125 142.975 35.5234C143.111 35.7344 143.285 35.9004 143.496 36.0215C143.707 36.1387 143.959 36.1973 144.252 36.1973C144.611 36.1973 144.906 36.1211 145.137 35.9688C145.371 35.8164 145.559 35.6152 145.699 35.3652C145.84 35.1152 145.949 34.8438 146.027 34.5508V33.1387C145.98 32.9238 145.912 32.7168 145.822 32.5176C145.736 32.3145 145.623 32.1348 145.482 31.9785C145.346 31.8184 145.176 31.6914 144.973 31.5977C144.773 31.5039 144.537 31.457 144.264 31.457C143.967 31.457 143.711 31.5195 143.496 31.6445C143.285 31.7656 143.111 31.9336 142.975 32.1484C142.838 32.3594 142.736 32.6055 142.67 32.8867C142.607 33.1641 142.576 33.4609 142.576 33.7773ZM152.408 35.5352V30.6602H153.498V37H152.461L152.408 35.5352ZM152.613 34.1992L153.064 34.1875C153.064 34.6094 153.02 35 152.93 35.3594C152.844 35.7148 152.703 36.0234 152.508 36.2852C152.312 36.5469 152.057 36.752 151.74 36.9004C151.424 37.0449 151.039 37.1172 150.586 37.1172C150.277 37.1172 149.994 37.0723 149.736 36.9824C149.482 36.8926 149.264 36.7539 149.08 36.5664C148.896 36.3789 148.754 36.1348 148.652 35.834C148.555 35.5332 148.506 35.1719 148.506 34.75V30.6602H149.59V34.7617C149.59 35.0469 149.621 35.2832 149.684 35.4707C149.75 35.6543 149.838 35.8008 149.947 35.9102C150.061 36.0156 150.186 36.0898 150.322 36.1328C150.463 36.1758 150.607 36.1973 150.756 36.1973C151.217 36.1973 151.582 36.1094 151.852 35.9336C152.121 35.7539 152.314 35.5137 152.432 35.2129C152.553 34.9082 152.613 34.5703 152.613 34.1992ZM157.688 36.2266C157.945 36.2266 158.184 36.1738 158.402 36.0684C158.621 35.9629 158.801 35.8184 158.941 35.6348C159.082 35.4473 159.162 35.2344 159.182 34.9961H160.213C160.193 35.3711 160.066 35.7207 159.832 36.0449C159.602 36.3652 159.299 36.625 158.924 36.8242C158.549 37.0195 158.137 37.1172 157.688 37.1172C157.211 37.1172 156.795 37.0332 156.439 36.8652C156.088 36.6973 155.795 36.4668 155.561 36.1738C155.33 35.8809 155.156 35.5449 155.039 35.166C154.926 34.7832 154.869 34.3789 154.869 33.9531V33.707C154.869 33.2812 154.926 32.8789 155.039 32.5C155.156 32.1172 155.33 31.7793 155.561 31.4863C155.795 31.1934 156.088 30.9629 156.439 30.7949C156.795 30.627 157.211 30.543 157.688 30.543C158.184 30.543 158.617 30.6445 158.988 30.8477C159.359 31.0469 159.65 31.3203 159.861 31.668C160.076 32.0117 160.193 32.4023 160.213 32.8398H159.182C159.162 32.5781 159.088 32.3418 158.959 32.1309C158.834 31.9199 158.662 31.752 158.443 31.627C158.229 31.498 157.977 31.4336 157.688 31.4336C157.355 31.4336 157.076 31.5 156.85 31.6328C156.627 31.7617 156.449 31.9375 156.316 32.1602C156.188 32.3789 156.094 32.623 156.035 32.8926C155.98 33.1582 155.953 33.4297 155.953 33.707V33.9531C155.953 34.2305 155.98 34.5039 156.035 34.7734C156.09 35.043 156.182 35.2871 156.311 35.5059C156.443 35.7246 156.621 35.9004 156.844 36.0332C157.07 36.1621 157.352 36.2266 157.688 36.2266ZM164.086 30.6602V31.4922H160.658V30.6602H164.086ZM161.818 29.1191H162.902V35.4297C162.902 35.6445 162.936 35.8066 163.002 35.916C163.068 36.0254 163.154 36.0977 163.26 36.1328C163.365 36.168 163.479 36.1855 163.6 36.1855C163.689 36.1855 163.783 36.1777 163.881 36.1621C163.982 36.1426 164.059 36.127 164.109 36.1152L164.115 37C164.029 37.0273 163.916 37.0527 163.775 37.0762C163.639 37.1035 163.473 37.1172 163.277 37.1172C163.012 37.1172 162.768 37.0645 162.545 36.959C162.322 36.8535 162.145 36.6777 162.012 36.4316C161.883 36.1816 161.818 35.8457 161.818 35.4238V29.1191ZM166.535 30.6602V37H165.445V30.6602H166.535ZM165.363 28.9785C165.363 28.8027 165.416 28.6543 165.521 28.5332C165.631 28.4121 165.791 28.3516 166.002 28.3516C166.209 28.3516 166.367 28.4121 166.477 28.5332C166.59 28.6543 166.646 28.8027 166.646 28.9785C166.646 29.1465 166.59 29.291 166.477 29.4121C166.367 29.5293 166.209 29.5879 166.002 29.5879C165.791 29.5879 165.631 29.5293 165.521 29.4121C165.416 29.291 165.363 29.1465 165.363 28.9785ZM170.203 36.0215L171.938 30.6602H173.045L170.766 37H170.039L170.203 36.0215ZM168.756 30.6602L170.543 36.0508L170.666 37H169.939L167.643 30.6602H168.756ZM175.266 30.6602V37H174.176V30.6602H175.266ZM174.094 28.9785C174.094 28.8027 174.146 28.6543 174.252 28.5332C174.361 28.4121 174.521 28.3516 174.732 28.3516C174.939 28.3516 175.098 28.4121 175.207 28.5332C175.32 28.6543 175.377 28.8027 175.377 28.9785C175.377 29.1465 175.32 29.291 175.207 29.4121C175.098 29.5293 174.939 29.5879 174.732 29.5879C174.521 29.5879 174.361 29.5293 174.252 29.4121C174.146 29.291 174.094 29.1465 174.094 28.9785ZM179.66 30.6602V31.4922H176.232V30.6602H179.66ZM177.393 29.1191H178.477V35.4297C178.477 35.6445 178.51 35.8066 178.576 35.916C178.643 36.0254 178.729 36.0977 178.834 36.1328C178.939 36.168 179.053 36.1855 179.174 36.1855C179.264 36.1855 179.357 36.1777 179.455 36.1621C179.557 36.1426 179.633 36.127 179.684 36.1152L179.689 37C179.604 37.0273 179.49 37.0527 179.35 37.0762C179.213 37.1035 179.047 37.1172 178.852 37.1172C178.586 37.1172 178.342 37.0645 178.119 36.959C177.896 36.8535 177.719 36.6777 177.586 36.4316C177.457 36.1816 177.393 35.8457 177.393 35.4238V29.1191ZM182.713 36.3438L184.477 30.6602H185.637L183.094 37.9785C183.035 38.1348 182.957 38.3027 182.859 38.4824C182.766 38.666 182.645 38.8398 182.496 39.0039C182.348 39.168 182.168 39.3008 181.957 39.4023C181.75 39.5078 181.502 39.5605 181.213 39.5605C181.127 39.5605 181.018 39.5488 180.885 39.5254C180.752 39.502 180.658 39.4824 180.604 39.4668L180.598 38.5879C180.629 38.5918 180.678 38.5957 180.744 38.5996C180.814 38.6074 180.863 38.6113 180.891 38.6113C181.137 38.6113 181.346 38.5781 181.518 38.5117C181.689 38.4492 181.834 38.3418 181.951 38.1895C182.072 38.041 182.176 37.8359 182.262 37.5742L182.713 36.3438ZM181.418 30.6602L183.064 35.582L183.346 36.7246L182.566 37.123L180.234 30.6602H181.418Z" fill="white" style="fill:white;fill:white;fill-opacity:1;"/>
</svg>
